# AST/ASF file generated using VICON BodyLanguage
# -----------------------------------------------
:version 1.10
:name VICON
:units
  mass 1.0
  length 0.45
  angle deg
:documentation
   .ast/.asf automatically generated from VICON data using
   VICON BodyBuilder and BodyLanguage model FoxedUp or BRILLIANT.MOD
:root
   order TX TY TZ RX RY RZ
   axis XYZ
   position 0 0 0  
   orientation 0 0 0 
:bonedata
  begin
     id 1 
     name lhipjoint
     direction 0.630082 -0.636569 0.44472 
     length 2.82754 
     axis 0 0 0  XYZ
  end
  begin
     id 2 
     name lfemur
     direction 0.34202 -0.939693 0  
     length 7.26371  
     axis 0 0 20  XYZ
    dof rx ry rz
    limits (-160.0 20.0)
           (-70.0 70.0)
           (-60.0 70.0)
  end
  begin
     id 3 
     name ltibia
     direction 0.34202 -0.939693 0   
     length 7.88616   
     axis 0 0 20   XYZ
    dof rx
    limits (-10.0 170.0)
  end
  begin
     id 4 
     name lfoot
     direction 0.0603448 -0.165796 0.984312   
     length 1.77861   
     axis -90 7.62852e-016 20   XYZ
    dof rx rz
    limits (-45.0 90.0)
           (-70.0 20.0)
  end
  begin
     id 5 
     name ltoes
     direction 1.53577e-011 -4.21876e-011 1   
     length 0.902235   
     axis -90 7.62852e-016 20   XYZ
    dof rx
    limits (-90.0 20.0)
  end
  begin
     id 6 
     name rhipjoint
     direction -0.656778 -0.61817 0.431866   
     length 2.9117  
     axis 0 0 0  XYZ 
  end
  begin
     id 7 
     name rfemur
     direction -0.34202 -0.939693 0   
     length 6.81603   
     axis 0 0 -20   XYZ
    dof rx ry rz
    limits (-160.0 20.0)
           (-70.0 70.0)
           (-70.0 60.0)
  end
  begin
     id 8 
     name rtibia
     direction -0.34202 -0.939693 0   
     length 8.05997   
     axis 0 0 -20   XYZ
    dof rx
    limits (-10.0 170.0)
 end
 begin
     id 9 
     name rfoot
     direction -0.0862404 -0.236944 0.967688   
     length 1.84899  
     axis -90 -7.62852e-016 -20   XYZ
    dof rx rz
    limits (-45.0 90.0)
           (-20.0 70.0)
  end
  begin
     id 10 
     name rtoes
     direction -1.53561e-011 -4.21798e-011 1   
     length 0.931579   
     axis -90 -7.62852e-016 -20   XYZ
    dof rx
    limits (-90.0 20.0)
  end
  begin
     id 11 
     name lowerback
     direction -0.0110203 0.991769 -0.127564   
     length 2.05686   
     axis 0 0 0   XYZ
    dof rx ry rz
    limits (-20.0 45.0)
           (-30.0 30.0)
           (-30.0 30.0)
  end
  begin
     id 12 
     name upperback
     direction 0.0109719 0.99993 -0.00432479   
     length 2.06234   
     axis 0 0 0   XYZ
    dof rx ry rz
    limits (-20.0 45.0)
           (-30.0 30.0)
           (-30.0 30.0)
  end
  begin
     id 13 
     name thorax
     direction 0.0173308 0.998351 0.0547306   
     length 2.09856   
     axis 0 0 0   XYZ
    dof rx ry rz
    limits (-20.0 45.0)
           (-30.0 30.0)
           (-30.0 30.0)
  end
  begin
     id 14 
     name lowerneck
     direction -0.0311736 0.989033 0.144366   
     length 1.98151   
     axis 0 0 0   XYZ
    dof rx ry rz
    limits (-20.0 45.0)
           (-30.0 30.0)
           (-30.0 30.0)
  end
  begin
     id 15 
     name upperneck
     direction 0.0421057 0.975772 -0.214698   
     length 2.01457   
     axis 0 0 0   XYZ
    dof rx ry rz
    limits (-20.0 45.0)
           (-30.0 30.0)
           (-30.0 30.0)
  end
  begin
     id 16
     name head
     direction 0.0136911 0.995958 -0.0887718  
     length 2.03562  
     axis 0 0 0   XYZ
    dof rx ry rz
    limits (-20.0 45.0)
           (-30.0 30.0)
           (-30.0 30.0)
  end
  begin
     id 17 
     name lclavicle
     direction 0.915335 0.396201 0.0720134  
     length 4.16217  
     axis 0 0 0   XYZ
    dof ry rz
    limits (-20.0 10.0)
           (0.0 20.0)
  end
  begin
     id 18 
     name lhumerus
     direction 1 -4.48965e-011 6.383e-018   
     length 4.93042   
     axis -180 -30 -90   XYZ
    dof rx ry rz
    limits (-60.0 90.0)
           (-90.0 90.0)
           (-90.0 90.0)
  end
  begin
     id 19
     name lradius
     direction 1 -4.48972e-011 8.8689e-027   
     length 3.68177   
     axis -180 -30 -90   XYZ
    dof rx
    limits (-10.0 170.0)
  end
  begin
     id 20
     name lwrist
     direction 1 -4.48953e-011 1.17971e-026   
     length 1.84089   
     axis -7.69454e-015 90 90   XYZ
    dof ry
    limits (-180.0 0.0)
 end
  begin
     id 21 
     name lhand
     direction 1 -4.49027e-011 2.35802e-026   
     length 0.721479   
     axis -1.50533e-014 90 90   XYZ
    dof rx rz
    limits (-90.0 90.0)
           (-45.0 45.0)
  end
  begin
     id 22 
     name lfingers
     direction 1 -4.48915e-011 4.72027e-026   
     length 0.581675   
     axis -3.01059e-014 90 90   XYZ
    dof rx
    limits (0.0 90.0)
  end
  begin
     id 23
     name lthumb
     direction 0.707107 -6.34948e-011 0.707107   
     length 0.835172   
     axis -90 45 -5.12164e-014   XYZ
    dof rx rz
    limits (-45.0 45.0)
           (-45.0 45.0)
  end
  begin
     id 24 
     name rclavicle
     direction -0.882781 0.469197 0.0234974   
     length 3.95647  
     axis 0 0 0   XYZ 
    dof ry rz
    limits (-10.0 20.0)
           (-20.0 0.0)
  end
  begin
     id 25 
     name rhumerus
     direction -1 -4.48965e-011 -1.54906e-018  
     length 5.07905   
     axis -180 30 90   XYZ
    dof rx ry rz
    limits (-90.0 60.0)
           (-90.0 90.0)
           (-90.0 90.0)
  end
  begin
     id 26 
     name rradius
     direction -1 -4.48972e-011 5.47489e-027   
     length 3.54394   
     axis -180 30 90   XYZ
    dof rx
    limits (-10.0 170.0)
  end
  begin
     id 27 
     name rwrist
     direction -1 -4.48955e-011 1.17969e-026   
     length 1.77197   
     axis -7.69454e-015 -90 -90   XYZ
    dof ry
    limits (-180.0 0.0)
  end
  begin
     id 28
     name rhand
     direction -1 -4.48982e-011 2.35888e-026   
     length 0.681156   
     axis -1.50533e-014 -90 -90   XYZ
    dof rx rz
    limits (-90.0 90.0)
           (-45.0 45.0)
  end
  begin
     id 29
     name rfingers
     direction -1 -4.48955e-011 4.71877e-026   
     length 0.549165   
     axis -3.01059e-014 -90 -90   XYZ
    dof rx
    limits (0.0 90.0)
  end
  begin
     id 30
     name rthumb
     direction -0.707107 -6.3491e-011 0.707107   
     length 0.788495   
     axis -90 -45 5.12164e-014   XYZ
    dof rx rz
    limits (-45.0 45.0)
           (-45.0 45.0)
  end
:hierarchy
  begin
    root lhipjoint rhipjoint lowerback
    lhipjoint lfemur
    lfemur ltibia
    ltibia lfoot
    lfoot ltoes
    rhipjoint rfemur
    rfemur rtibia
    rtibia rfoot
    rfoot rtoes
    lowerback upperback
    upperback thorax
    thorax lowerneck lclavicle rclavicle
    lowerneck upperneck
    upperneck head
    lclavicle lhumerus
    lhumerus lradius
    lradius lwrist
    lwrist lhand lthumb
    lhand lfingers
    rclavicle rhumerus
    rhumerus rradius
    rradius rwrist
    rwrist rhand rthumb
    rhand rfingers
  end

#!OML:ASF H:\Bending\Project 1\Capture day 1\Session 1\Subject.ASF
:FULLY-SPECIFIED
:DEGREES
64
root -10.6034 18.0103 -16.3204 -156.46 88.8089 -161.842
lowerback 11.6163 0.196703 1.0166
upperback -0.778927 0.570154 1.88619
thorax -7.36668 0.289345 1.31789
lowerneck -24.7008 -3.37508 -5.22017
upperneck 33.6524 -2.51484 1.10773
head 16.319 -1.34141 0.919112
rclavicle 4.77083e-015 9.54166e-015
rhumerus -30.8074 -4.78571 -77.0738
rradius 34.7681
rwrist 8.3086
rhand -18.2497 -19.8564
rfingers 7.12502
rthumb 8.02937 -49.6839
lclavicle 4.77083e-015 9.54166e-015
lhumerus -27.1863 -6.95146 92.9941
lradius 30.0131
lwrist 16.618
lhand -27.9084 4.2112
lfingers 7.12502
lthumb -1.29747 34.187
rfemur -6.41846 -6.66921 15.2203
rtibia 11.6404
rfoot -10.6009 -16.8552
rtoes -2.14069
lfemur -13.9824 -9.62508 -11.7629
ltibia 22.2226
lfoot -19.009 11.7545
ltoes -29.0195
65
root -10.6477 17.9855 -16.3131 -163.508 89.0764 -168.83
lowerback 12.294 0.260824 0.934326
upperback -0.620387 0.651473 1.80702
thorax -7.58354 0.331057 1.2647
lowerneck -24.6974 -3.36859 -5.22805
upperneck 33.3796 -2.53736 1.15544
head 16.1846 -1.34842 0.933431
rclavicle -2.5842e-015 0
rhumerus -29.7578 -5.05095 -77.37
rradius 34.3552
rwrist 9.17569
rhand -18.1533 -19.325
rfingers 7.12502
rthumb 8.12239 -49.1489
lclavicle -2.5842e-015 0
lhumerus -26.0953 -7.38518 93.3093
lradius 29.3542
lwrist 16.2289
lhand -27.7134 4.1423
lfingers 7.12502
lthumb -1.10914 34.1192
rfemur -7.87204 -7.48152 15.0199
rtibia 13.9705
rfoot -11.5295 -15.8852
rtoes -2.27824
lfemur -14.4358 -8.20831 -11.9644
ltibia 22.925
lfoot -18.9917 10.1681
ltoes -27.8611
66
root -10.6932 17.9571 -16.3053 -171.087 89.3383 -176.346
lowerback 12.9957 0.312907 0.883438
upperback -0.439526 0.722572 1.74301
thorax -7.78885 0.367324 1.21009
lowerneck -24.6877 -3.33523 -5.21054
upperneck 33.0856 -2.52901 1.19537
head 16.0375 -1.34081 0.946276
rclavicle -6.16232e-015 -6.36111e-015
rhumerus -28.6474 -5.23238 -77.7454
rradius 33.9486
rwrist 10.0663
rhand -18.128 -18.8884
rfingers 7.12502
rthumb 8.14685 -48.7113
lclavicle -6.16232e-015 -6.36111e-015
lhumerus -24.9995 -7.71085 93.6035
lradius 28.7737
lwrist 16.052
lhand -27.5922 4.11726
lfingers 7.12502
lthumb -0.992011 34.0947
rfemur -9.23771 -8.24045 14.8904
rtibia 16.1293
rfoot -12.3374 -14.9622
rtoes -2.50897
lfemur -14.9811 -6.71423 -12.1027
ltibia 23.7932
lfoot -18.9748 8.5128
ltoes -26.7657
67
root -10.7388 17.9248 -16.2979 -178.026 89.5792 -183.248
lowerback 13.6832 0.339634 0.891896
upperback -0.245091 0.770616 1.69654
thorax -7.96938 0.390867 1.14383
lowerneck -24.6706 -3.27627 -5.17069
upperneck 32.7779 -2.49272 1.23432
head 15.8817 -1.31901 0.960521
rclavicle -7.95139e-016 8.74653e-015
rhumerus -27.5387 -5.05735 -78.256
rradius 33.6984
rwrist 10.6673
rhand -18.1827 -18.7454
rfingers 7.12502
rthumb 8.09402 -48.5704
lclavicle -7.95139e-016 8.74653e-015
lhumerus -23.918 -7.93813 93.8704
lradius 28.3055
lwrist 16.118
lhand -27.5659 4.17174
lfingers 7.12502
lthumb -0.966624 34.1493
rfemur -10.5654 -8.9895 14.8502
rtibia 18.1609
rfoot -13.0531 -14.0787
rtoes -2.83358
lfemur -15.6564 -5.18092 -12.1608
ltibia 24.8383
lfoot -18.9605 6.8323
ltoes -25.7952
68
root -10.7841 17.888 -16.2919 -181.626 89.7859 -186.855
lowerback 14.3385 0.330527 0.966012
upperback -0.0455042 0.783577 1.66506
thorax -8.1237 0.395549 1.06291
lowerneck -24.6526 -3.1985 -5.11426
upperneck 32.4656 -2.43659 1.27533
head 15.7237 -1.28659 0.976709
rclavicle -4.17448e-015 -3.4191e-014
rhumerus -26.4415 -4.51431 -78.881
rradius 33.6202
rwrist 10.9176
rhand -18.2952 -18.9167
rfingers 7.12502
rthumb 7.98545 -48.7459
lclavicle -4.17448e-015 -3.4191e-014
lhumerus -22.8541 -8.02472 94.0955
lradius 27.9497
lwrist 16.3644
lhand -27.6483 4.32356
lfingers 7.12502
lthumb -1.04626 34.3007
rfemur -11.8971 -9.77182 14.8938
rtibia 20.1123
rfoot -13.706 -13.2286
rtoes -3.28271
lfemur -16.4834 -3.64095 -12.1483
ltibia 26.0556
lfoot -18.9538 5.16976
ltoes -25.1069
